<?xml version="1.0" encoding="utf-8"?>
<!-- Generator: Adobe Illustrator 14.0.0, SVG Export Plug-In . SVG Version: 6.00 Build 43363)  -->
<!DOCTYPE svg PUBLIC "-//W3C//DTD SVG 1.1//EN" "http://www.w3.org/Graphics/SVG/1.1/DTD/svg11.dtd">
<svg version="1.1" id="Layer_1" xmlns="http://www.w3.org/2000/svg" xmlns:xlink="http://www.w3.org/1999/xlink" x="0px" y="0px"
	 width="183px" height="250px" viewBox="0 0 183 250" enable-background="new 0 0 183 250" xml:space="preserve">
<g>
	<path d="M177.466,153.361c0.44-0.788,0.625-1.576,0.625-2.293c0-1.29-0.563-2.376-1.209-2.918c-1.576-1.362-4.27-1.639-6.153,0.532
		l-0.153,0.194l-0.082,0.205c-0.226,0.512-0.317,1.003-0.317,1.454c0,0.194,0.021,0.368,0.051,0.532
		c-0.604-0.144-1.249-0.369-1.822-0.758c-0.082-0.051-7.863-5.283-7.863-12.185c0-0.051,0-0.092,0-0.144
		c0.092-6.378,1.105-9.777,6.522-11.989c0,0.03-0.011,0.051-0.011,0.082c0,0.471,0.072,0.952,0.235,1.393
		c0.369,1.014,1.178,1.72,2.263,2.027c1.434,0.399,2.898,0.163,4.014-0.614c1.055-0.748,1.71-1.945,1.792-3.267v-0.051
		c0-0.041,0-0.082,0-0.123c0-2.918-3.256-6.164-5.272-7.71c-0.451-0.44-7.689-7.516-10.454-13.178
		c-0.973-2.314-2.386-6.471-2.386-8.56c0-0.154,0.021-0.297,0.041-0.44v-0.041c0.174-1.863,0.665-3.266,1.178-4.311
		c0.379,0.41,0.859,0.778,1.525,1.034l0.215,0.082l0.246,0.021c2.856,0.153,4.535-1.966,4.658-4.044
		c0.093-1.362-0.973-3.542-3.583-4.116l-0.175-0.041c0,0-0.153,0.01-0.174,0.01l-0.174,0.01c-0.205,0.01-0.42,0.021-0.604,0.041
		c0.011-0.205,0.031-0.419,0.031-0.635c0-0.051,0-0.092,0-0.143v-0.185l-0.041-0.164c-0.666-2.591-2.867-3.584-4.229-3.451
		c-1.966,0.174-3.912,1.741-3.912,4.321c0,0.144,0,0.297,0.021,0.471l0.021,0.225l0.082,0.225c0.276,0.625,0.604,1.106,0.942,1.485
		c-0.41,0.235-0.942,0.46-1.618,0.614c-0.521,0.062-8.15,0.932-15.103-2.959l-0.041-0.021l-0.04-0.021
		c-8.191-3.921-10.608-4.761-11.253-4.945c-0.819-0.307-7.475-2.713-12.082-1.218c-2.242,0.716-3.911,2.252-5.109,3.757
		c-0.471-1.034-1.208-2.088-2.406-3.031c-4.096-3.85-13.239-3.532-13.925-3.501h-0.471c-0.696-0.031-9.83-0.348-13.925,3.501
		c-1.198,0.942-1.946,1.997-2.406,3.031c-1.198-1.505-2.877-3.041-5.109-3.757c-4.607-1.495-11.273,0.911-12.082,1.218
		c-0.645,0.184-3.071,1.024-11.252,4.945l-0.041,0.021l-0.041,0.021c-6.952,3.891-14.59,3.021-15.112,2.959
		c-0.666-0.154-1.198-0.379-1.618-0.614c0.348-0.379,0.676-0.86,0.942-1.485l0.092-0.225l0.021-0.225
		c0.021-0.174,0.021-0.328,0.021-0.471c0-2.58-1.956-4.147-3.911-4.321c-1.362-0.133-3.563,0.86-4.229,3.451l-0.041,0.164v0.185
		c0,0.051,0,0.092,0,0.143c0,0.226,0.021,0.43,0.031,0.635c-0.185-0.021-0.389-0.031-0.583-0.041l-0.205-0.01
		c-0.01,0-0.174-0.01-0.174-0.01l-0.164,0.041c-2.611,0.574-3.676,2.754-3.594,4.116c0.133,2.079,1.813,4.198,4.669,4.044
		l0.246-0.021l0.215-0.082c0.666-0.256,1.146-0.625,1.525-1.034c0.512,1.044,1.003,2.447,1.177,4.311v0.041
		c0.021,0.144,0.031,0.287,0.031,0.44c0,2.089-1.413,6.246-2.375,8.56c-2.764,5.662-10.003,12.737-10.454,13.178
		c-2.027,1.546-5.283,4.792-5.283,7.71c0,0.041,0,0.082,0.01,0.123v0.051c0.082,1.321,0.737,2.519,1.792,3.267
		c1.116,0.777,2.581,1.014,4.014,0.614c1.085-0.308,1.895-1.014,2.252-2.027c0.174-0.44,0.246-0.922,0.246-1.393
		c0-0.031-0.01-0.052-0.01-0.082c5.406,2.212,6.42,5.611,6.522,11.989c0,0.052,0,0.093,0,0.144c0,6.901-7.781,12.134-7.863,12.185
		c-0.573,0.389-1.219,0.614-1.823,0.758c0.031-0.164,0.051-0.338,0.051-0.532c0-0.451-0.092-0.942-0.317-1.454l-0.092-0.205
		l-0.143-0.194c-1.884-2.171-4.577-1.895-6.154-0.532c-0.655,0.542-1.208,1.628-1.208,2.918c0,0.717,0.184,1.505,0.625,2.293
		l0.215,0.379c0.01,0,0.123,0.123,0.123,0.123c0.194,0.194,0.389,0.358,0.583,0.512c-0.194,0.175-0.389,0.338-0.583,0.522
		l-0.123,0.123l-0.102,0.164c-0.533,0.859-0.737,1.73-0.737,2.519c0,1.279,0.553,2.365,1.208,2.908
		c1.577,1.371,4.27,1.628,6.154-0.533l0.143-0.184l0.092-0.226c0.225-0.502,0.317-0.993,0.317-1.443
		c0-0.297-0.051-0.584-0.123-0.851c0.635,0.103,1.301,0.297,1.895,0.696l0.123,0.093l0.154,0.062
		c1.945,0.788,4.782,4.105,5.765,5.375c1.7,2.591,2.846,6.983,3.973,11.222l1.27,4.628c1.229,4.106,1.802,5.161,2.836,7.075
		l1.618,3.103c2.979,5.232,6.962,8.13,11.856,8.642c0.84,0.082,1.607,0.03,2.304-0.103c-0.133,0.666-0.235,1.393-0.235,2.212
		c0,1.157,0.184,2.468,0.655,3.911c1.311,4.208,7.679,7.577,12.778,9.646l2.99,1.188c5.447,2.16,13.679,5.406,18.297,8.313
		c3.481,2.191,6,5.796,7.311,8.007c-0.185,0.082-0.369,0.164-0.543,0.276c-1.095,0.676-1.689,1.833-1.689,3.287
		c0,1.505,0.655,2.386,1.229,2.867c0.635,0.532,1.403,0.768,2.068,0.859c0.133,0.707,0.338,1.557,0.737,2.376
		c0.83,1.72,2.273,2.948,2.437,3.092L91.5,245l0.973-0.799c0.164-0.144,1.607-1.372,2.437-3.092
		c0.399-0.819,0.604-1.669,0.717-2.376c0.687-0.092,1.454-0.327,2.089-0.859c0.573-0.481,1.229-1.362,1.229-2.867
		c0-1.454-0.594-2.611-1.689-3.287c-0.174-0.112-0.368-0.194-0.542-0.276c1.311-2.211,3.829-5.815,7.311-8.007
		c4.617-2.907,12.85-6.153,18.286-8.313l3-1.188c5.1-2.068,11.458-5.438,12.778-9.666c0.481-1.434,0.655-2.733,0.655-3.891
		c0-0.819-0.092-1.546-0.235-2.212c0.696,0.133,1.464,0.185,2.304,0.103c4.895-0.512,8.877-3.409,11.847-8.642l0.021-0.021
		l1.607-3.082c1.034-1.914,1.607-2.969,2.826-7.075l1.279-4.628c1.116-4.238,2.273-8.631,3.973-11.222
		c0.973-1.27,3.819-4.587,5.765-5.375l0.153-0.062l0.123-0.093c0.594-0.399,1.26-0.594,1.884-0.696
		c-0.062,0.267-0.112,0.554-0.112,0.851c0,0.45,0.092,0.941,0.317,1.443l0.082,0.226l0.153,0.184
		c1.884,2.161,4.577,1.904,6.153,0.533c0.646-0.543,1.209-1.629,1.209-2.908c0-0.788-0.205-1.659-0.758-2.519l-0.082-0.164
		l-0.123-0.123c-0.194-0.185-0.399-0.348-0.584-0.522c0.185-0.153,0.39-0.317,0.584-0.512c0,0,0.092-0.092,0.103-0.112
		L177.466,153.361z M175.899,159.464c-0.758,0.655-2.58,1.29-4.014-0.379c-0.84-1.976,1.361-3.103,1.361-3.103
		s-3.184-0.839-5.683,0.83c-2.805,1.137-6.45,5.907-6.45,5.907c-2.488,3.799-3.778,10.689-5.447,16.301
		c-1.669,5.61-2.058,5.222-4.32,9.85c-3.491,6.144-7.741,7.577-10.7,7.884c-2.948,0.308-4.996-1.434-4.996-1.434
		s2.724,3.257,0.982,8.499c-1.055,3.399-6.665,6.594-11.897,8.703c-5.231,2.119-15.84,6.062-21.522,9.624
		c-5.682,3.563-8.918,10.525-8.918,10.525c0.185-0.081,3.144-0.43,3.144,2.335s-3.185,2.232-3.185,2.232s0,1.74-0.706,3.204
		c-0.717,1.485-2.048,2.591-2.048,2.591s-1.331-1.105-2.048-2.591c-0.707-1.464-0.707-3.204-0.707-3.204s-3.184,0.532-3.184-2.232
		s2.949-2.416,3.133-2.335c0,0-3.226-6.962-8.908-10.525c-5.683-3.563-16.29-7.505-21.522-9.624
		c-5.232-2.109-10.843-5.304-11.897-8.703c-1.751-5.242,0.983-8.499,0.983-8.499s-2.058,1.741-5.007,1.434
		c-2.949-0.307-7.198-1.74-10.689-7.884c-2.273-4.628-2.652-4.239-4.321-9.85c-1.669-5.611-2.959-12.502-5.447-16.301
		c0,0-3.645-4.771-6.451-5.907c-2.498-1.669-5.683-0.83-5.683-0.83s2.191,1.127,1.362,3.103c-1.433,1.669-3.276,1.034-4.014,0.379
		c-0.532-0.45-1.146-1.904-0.164-3.481c1.597-1.597,3.041-1.607,3.041-1.607s-1.444,0-3.041-1.587
		c-0.983-1.587-0.369-3.03,0.164-3.481c0.737-0.655,2.581-1.29,4.014,0.369c0.83,1.976-1.362,3.112-1.362,3.112
		s3.185,0.451,5.683-1.208c0,0,8.672-5.703,8.54-13.617c-0.123-7.926-1.761-11.939-10.3-14.325c0.757,1.126,1.464,3.809-0.635,4.392
		c-2.078,0.574-3.768-0.696-3.891-2.508c-0.072-2.16,2.775-5.16,4.771-6.655c0,0,7.843-7.546,10.822-13.679
		c0,0,2.867-6.798,2.488-9.819c-0.481-5.15-3.225-7.495-3.225-7.495s0.46,2.171-1.536,2.938c-2.201,0.133-3.01-1.628-3.072-2.621
		c-0.041-0.696,0.574-2.129,2.396-2.529c2.263,0.041,3.256,1.065,3.256,1.065s-0.993-1.034-0.952-3.276
		c0.451-1.833,1.905-2.396,2.611-2.325c0.973,0.092,2.713,0.963,2.509,3.154c-0.84,1.966-2.12,1.71-2.12,1.71
		s0.993,1.833,3.932,2.468c0,0,8.396,1.198,16.105-3.133c9.502-4.536,11.079-4.863,11.079-4.863s6.789-2.632,11.15-1.219
		c4.351,1.403,6.409,6.666,6.409,6.666s-0.717-3.748,2.55-6.225c3.696-3.583,12.911-3.144,12.911-3.144h0.532
		c0,0,9.215-0.44,12.912,3.144c3.266,2.478,2.549,6.225,2.549,6.225s2.048-5.263,6.41-6.666c4.361-1.413,11.15,1.219,11.15,1.219
		s1.576,0.328,11.058,4.863c7.73,4.331,16.126,3.133,16.126,3.133c2.938-0.635,3.932-2.468,3.932-2.468s-1.3,0.256-2.119-1.71
		c-0.205-2.191,1.525-3.062,2.509-3.154c0.706-0.071,2.16,0.492,2.61,2.325c0.041,2.242-0.962,3.276-0.962,3.276
		s1.003-1.024,3.267-1.065c1.822,0.399,2.437,1.833,2.396,2.529c-0.062,0.993-0.87,2.754-3.071,2.621
		c-1.997-0.768-1.547-2.938-1.547-2.938s-2.733,2.345-3.215,7.495c-0.379,3.021,2.478,9.819,2.478,9.819
		c2.99,6.133,10.833,13.679,10.833,13.679c1.997,1.495,4.843,4.495,4.762,6.655c-0.123,1.812-1.803,3.083-3.892,2.508
		c-2.088-0.583-1.382-3.266-0.635-4.392c-8.528,2.385-10.167,6.399-10.29,14.325c-0.133,7.914,8.539,13.617,8.539,13.617
		c2.499,1.659,5.683,1.208,5.683,1.208s-2.201-1.137-1.361-3.112c1.434-1.659,3.256-1.024,4.014-0.369
		c0.532,0.451,1.137,1.895,0.144,3.481c-1.577,1.587-3.021,1.587-3.021,1.587s1.443,0.011,3.021,1.607
		C177.036,157.56,176.432,159.014,175.899,159.464"/>
	<path fill="#231F20" d="M74.35,87.874c0,0-1.403-3.87-3.123-4.741c-1.73-0.86-7.556-1.188-12.194,0.646
		c-4.639,1.833-11.54,4.956-14.775,5.938c-9.492,4.628-18.225-2.058-18.225-2.058s5.068,4.751,2.805,14.672
		c-1.413,5.068-2.805,8.519-6.573,12.072c-3.778,3.563-9.604,8.099-9.604,8.099s4.956-1.29,9.809,2.806
		c3.451,4.085,6.799,9.389,4.321,17.14c-4.208,11.651-14.129,11.549-14.129,11.549s9.481,0.963,13.7,11.427
		c4.208,10.465,4.638,16.73,7.976,21.563c6.645,12.799,12.553,6.809,12.553,6.809s-2.417,0.563-3.062-1.464
		c0.01-2.212,1.813-2.908,2.806-2.908c0.696,0,2.088,0.696,2.386,2.55c-0.185,2.253-1.27,3.185-1.27,3.185s1.096-0.932,3.348-0.758
		c1.782,0.573,2.253,2.058,2.15,2.754c-0.154,0.973-1.126,2.652-3.297,2.314c-1.915-0.952-0.983-3.246-0.983-3.246
		s-2.621,2.519-1.208,5.468c1.413,2.959,2.324,4.055,14.765,8.733c3.01,0.993,4.229,1.352,14.14,5.908
		c11.99,6.45,14.836,19.085,14.836,19.085s2.847-12.635,14.836-19.085c9.901-4.557,11.141-4.915,14.141-5.908
		c12.43-4.679,13.352-5.774,14.764-8.733c1.413-2.949-1.208-5.468-1.208-5.468s0.942,2.294-0.982,3.246
		c-2.181,0.338-3.144-1.342-3.297-2.314c-0.113-0.696,0.379-2.181,2.16-2.754c2.242-0.174,3.327,0.758,3.327,0.758
		s-1.085-0.932-1.259-3.185c0.286-1.854,1.679-2.55,2.386-2.55c0.982,0,2.795,0.696,2.806,2.908
		c-0.646,2.027-3.062,1.464-3.062,1.464s5.897,5.99,12.553-6.809c3.348-4.833,3.778-11.099,7.976-21.563
		c4.209-10.464,13.7-11.427,13.7-11.427s-9.922,0.103-14.13-11.549c-2.478-7.751,0.86-13.055,4.311-17.14
		c4.854-4.096,9.819-2.806,9.819-2.806s-5.826-4.536-9.594-8.099c-3.778-3.553-5.182-7.003-6.573-12.072
		c-2.273-9.921,2.795-14.672,2.795-14.672s-8.734,6.686-18.235,2.058c-3.226-0.983-10.137-4.106-14.775-5.938
		c-4.628-1.833-10.464-1.505-12.174-0.646c-1.73,0.871-3.133,4.741-3.133,4.741l-0.103,0.338c0,0,1.679-2.038,3.43-0.44
		c1.547,2.037,0.031,3.645-0.85,4.218c-0.624,0.399-2.283,0.563-3.604-0.921c-1.137-2.12-0.696-3.584-0.696-3.584
		s-0.44,1.464-2.561,2.591c-1.925,0.522-3.204-0.543-3.501-1.219c-0.431-0.973-0.522-3.031,1.617-3.983
		c2.273-0.246,2.744,2.345,2.744,2.345v-0.112c0,0,1.29-3.43-1.167-5.396c-2.478-1.966-4.331-1.352-7.096-1.352
		c-2.744,0.676-5.201,0.901-5.201,0.901h-0.338c0,0-2.447-0.225-5.202-0.901c-2.744,0-4.607-0.614-7.075,1.352
		c-2.478,1.966-1.177,5.396-1.177,5.396l-0.01,0.112c0,0,0.481-2.59,2.744-2.345c2.15,0.952,2.048,3.01,1.628,3.983
		c-0.307,0.676-1.587,1.741-3.502,1.219c-2.119-1.126-2.57-2.591-2.57-2.591s0.44,1.464-0.696,3.584
		c-1.311,1.484-2.959,1.321-3.594,0.921c-0.891-0.573-2.386-2.181-0.85-4.218c1.75-1.598,3.43,0.44,3.43,0.44L74.35,87.874z"/>
	<path fill="#F6EB14" d="M147.169,113.583c0,10.434-8.447,18.891-18.881,18.891c-10.433,0-18.9-8.458-18.9-18.891
		s8.468-18.88,18.9-18.88C138.722,94.703,147.169,103.15,147.169,113.583"/>
	<path fill="none" stroke="#231F20" stroke-width="0.3774" stroke-linecap="round" stroke-linejoin="round" d="M134.514,121.856
		l-0.164-2.672l0.993-0.839 M128.667,114.577l-0.594,0.092l0.174,0.839 M128.913,114.413l1.669-0.082v-0.911 M131.247,110.748
		l0.093,0.911 M130.582,112.498l1.26-0.174 M132.005,112.918l-0.082-1.096 M131.923,114.495l0.748-1.249 M128.493,112.744
		l0.922,0.839 M126.578,114.331l0.737,0.666 M126.077,112.826l0.163,1.014 M124.735,112.079l0.748,1.085 M123.23,112.242
		l1.331,1.423v0.666 M134.012,107.901v0.993 M127.152,112.826l0.921-0.747l-0.082-0.594l4.096-3.921l1.505,1.331l-0.419,1.096
		l0.245,1.751l3-2.386l1.188,0.993 M125.564,110.911l3.522-3.43l3.174,3.348 M126.988,112.744l-2.539-2.836 M122.729,110.748
		c0,0,1.331-0.256,1.587-0.594c0.052-0.071,0.093-0.153,0.134-0.246c0.143-0.389,0.194-0.921,0.194-0.921l1.434-1.505l4.341,4.516
		 M131.422,129.464h0.665l0.174-1.003l0.328-0.502h0.584 M133.511,128.041l0.839,0.584l-0.338,0.583h-0.338l-0.256-0.583
		 M130.162,126.116v1.003 M129.824,128.379l-0.071-1.68 M132.18,128.706l-0.144-0.081l-1.208-0.748 M131.34,130.048v-1.004
		 M133.838,127.457h0.676 M134.678,128.461v-1.505 M132.835,124.027l-0.42-1.341 M133.93,124.529l1.506,1.587l0.245,0.583
		 M131.422,125.44l0.338-0.83l1.238,1.423l1.014,0.246 M127.828,129.208l0.921-1.249v-1.761l0.584-0.42l1.669-2.089h0.583
		 M136.009,120.259v-1.331 M135.589,121.191v-1.259 M134.35,122.194l0.666-0.676 M133.173,121.437l2.007,2.007 M132.753,118.928
		v1.843 M128.913,123.188l1.751-2.334 M127.152,120.177l0.921,1.26 M128.155,119.768v1.003h1.096v1.341 M130.418,118.181
		l-1.085,0.922 M129.333,116.512l0.747-1.177l1.26-0.583l0.84-0.082l0.911,0.501l0.501,1.003l0.338,1.413l-0.092,1.259
		 M122.227,110.246c0,0,0.502,0.921,0.666,1.659c0.174,0.758,0.758,2.672,0.758,2.672 M128.749,117.679v1.341 M128.667,118.427
		h-1.014 M127.653,118.007v0.676 M127.571,116.921h1.096v-0.911 M127.49,117.505v-1.075 M125.739,127.713h1.751l0.245-0.839h-2.252
		 M124.397,129.71v-1.331h1.086v1.167h-0.502l0.379,0.379h-0.717 M124.981,127.877v-0.583h-0.758v-0.676h-0.317 M122.729,128.379
		v-0.584h1.833 M121.808,127.621h0.501 M121.808,128.461v-1.424 M122.646,129.792v-0.84 M127.07,124.447l0.758,0.839
		 M128.247,125.44v0.676 M127.49,123.024l1.003,1.505 M125.821,120.177l1.587,1.936 M126.404,117.505l0.666,1.598 M122.564,121.938
		l1.659-1.085 M122.811,118.928l1.004-1.003 M126.24,126.536l-1.925-2.509 M122.984,125.287l1.331-1.096 M123.23,126.454l0.829-0.83
		 M127.408,116.01l-1.925-1.341h-0.584l-1.915,1.423l-0.174,2.334l-0.338,0.921l-0.164,3.01l-0.583,2.345l-0.492,0.737l0.819,0.338
		l0.338,0.502 M133.93,126.874h2.253 M130.746,126.874h2.252 M121.132,126.874h2.263 M134.678,113.246v-0.921v-0.583
		 M134.852,116.676v-1.587 M138.107,115.836v1.331h-1.423v0.84h-1.925v-0.583 M135.261,124.109l0.922-1.423
		c0,0,0.84-1.751,0.84-2.007c0-0.246,0.42-1.413,0.42-1.413l1.331-1.423 M142.285,116.676c0,0-1.086,2.672-1.26,3.01
		c-0.163,0.328-1.249,1.587-1.249,1.587l-0.256-0.758l0.174-0.921l1.26-2.007l0.737-0.737 M135.763,124.867l2.263-3.092l0.164-2.181
		l1.505-1.833 M137.022,126.198l1.167-0.994l0.747-1.423l-0.338-0.676l-1.156,1.423l-1.014,0.912 M137.77,115.252v-2.508
		 M138.281,112.417v-1.178 M136.93,111.741v-0.993 M136.521,114.003v-1.587 M139.356,112.744v3.512h0.758v1.167 M139.776,109.406
		l1.423-0.84v-0.666 M139.101,107.317l1.178-0.42l0.338-1.177 M135.098,107.399l1.249-0.922l0.174,1.26c0,0,0.502,0.409,0.829,0.409
		c0.338,0,0.84-0.829,0.84-0.829v-0.921 M143.34,113.901v1.618 M142.213,114.188v0.43 M144.016,117.075c0,0-1.525-1.126-1.618-1.557
		c-0.092-0.43-0.768,0.901-1.146,0.901c-0.369,0-0.901-0.666-0.901-0.666l-0.133-2.089l0.327-0.051v-1.556 M142.869,111.536v2.038
		 M140.258,110.583l-0.717-0.522 M142.213,109.775l-1.146,1.136 M141.159,107.225l-3.461,3.266 M144.436,110.583
		c0,0-1.526,0.103-1.751-0.328c-0.246-0.43-0.86-1.382-1.188-2.611c-0.338-1.229-0.717-2.089-1.045-2.181
		c-0.327-0.102-1.044,0.615-1.044,0.615 M137.35,104.143c0,0-0.215-1.618-0.03-1.904c0.194-0.276,0.194-0.471,0.194-0.471
		l1.751,1.607 M135.046,124.519c0.134,0.246,0.81,0.574,0.81,0.809c0,0.246,0.809,0.287,0.809,0.625
		c0,0.317,0.809,0.993,0.809,0.993s0.512,0.328,0.747,0.185c0.236-0.144,3.185-3.42,3.748-4.219c0.563-0.798,2.847-6.45,2.847-9.676
		c0-3.225-1.229-6.911-3.317-9.86c-2.089-2.938-4.926-4.311-5.355-4.311c-0.768-0.338-1.566,0.522-1.761,0.993
		c-0.185,0.471,0.051,1.515,0.327,1.997c0.287,0.471,0.625,1.085,0.287,1.894c-0.235,0.563-1.372,1.505-1.997,1.945l-1.034-0.952
		c-0.9-1.229-1.464-5.549-1.464-5.549s0.563-0.195,1.034-0.144c0.471,0.041,1.525,0.287,1.525,0.287s-1.146-2.56-2.806-2.232v-0.512
		c0,0-1.75-0.051-2.56,0.378c-0.799,0.43-2.181,1.751-2.231,1.936c-0.041,0.184,0.676,0.573,0.676,0.573s-0.287,4.505-0.625,4.833
		c-0.327,0.338-1.331,1.423-1.751,1.423c-0.43,0-1.945-1.321-2.272-2.13c-0.338-0.809-0.481-1.28-0.195-1.75
		c0.287-0.481,0.522-1.526,0.328-1.997c-0.185-0.471-0.993-1.331-1.751-0.993c-0.43,0-3.267,1.372-5.354,4.311
		c-2.089,2.949-3.318,6.635-3.318,9.86c0,3.226,2.273,8.877,2.847,9.676c0.563,0.799,3.502,4.075,3.748,4.219
		c0.225,0.144,0.747-0.185,0.747-0.185s0.809-0.676,0.809-0.993c0-0.338,0.81-0.379,0.81-0.625c0-0.235,0.665-0.563,0.809-0.809
		 M121.961,118.17v0.615 M121.726,109.775l2.037-2.939l0.573,1.044 M121.438,116.748l0.052,1.136 M121.817,112.713v3.707
		 M121.254,123.341c0,0,0.431-0.246,0.563-0.666c0.144-0.43,0.052-0.901,0.052-0.901s-0.86-2.232-1.096-2.898
		c-0.236-0.655-0.707-1.607-0.707-1.607 M119.114,113.573v-1.566 M118.787,117.454c0,0,0.941-0.133,0.941-0.328
		c0-0.184,0.144-1.945,0.144-1.945l-0.276-0.512l-0.052-0.768 M112.664,113.901v1.618 M113.811,114.188v0.43 M117.548,114.618v0.993
		 M117.64,111.536v1.986h0.431v0.809 M120.016,125.276c0,0-1.004-2.846-1.413-3.501c-0.43-0.666-0.676-2.744-1.146-3.328
		c-0.472-0.563-0.851-1.843-0.851-1.843l0.901-0.758l1.28,1.895l0.563,1.331l0.472,2.273l1.238,1.751l-0.051,1.239 M118.07,124.897
		v-0.901c0,0-1.045-2.273-1.239-2.836c-0.185-0.573-0.993-2.713-1.219-3.184c-0.245-0.471-0.717-1.177-0.717-1.177 M118.541,126.945
		c0,0-0.092-0.809-0.092-0.993c0-0.194-1.936-2.427-2.182-3.144c-0.235-0.696-0.85-2.601-0.993-3.123
		c-0.133-0.522-1.525-3.133-1.525-3.133 M111.998,117.075c0,0,1.526-1.126,1.618-1.557c0.092-0.43,0.758,0.901,1.137,0.901
		c0.389,0,0.9-0.666,0.9-0.666l0.144-2.089l-0.338-0.051v-1.556 M113.146,111.536v2.038 M129.916,98.021
		c0,0-0.092-0.328-0.471-0.328s-0.901,0.225-0.901,0.225s0.379,0.533,0.584,0.533c0.185,0,0.42-0.154,0.42-0.154 M132.057,105.403
		l-0.584,0.594l-0.706-0.707l0.737-0.737l0.163,0.164 M130.644,105.259l-0.737,0.737l-0.696-0.707l0.727-0.737L130.644,105.259z
		 M128.984,105.259l-0.727,0.737l-0.717-0.707l0.747-0.737L128.984,105.259z M125.452,104.809l0.45,0.451l-0.727,0.737l-0.399-0.399
		 M127.326,105.259l-0.737,0.737l-0.707-0.707l0.737-0.737L127.326,105.259z M118.408,110.348l1.188-0.993l1.598,1.7
		 M115.746,110.583l0.717-0.522 M113.811,109.775l1.137,1.136 M117.64,107.829l-1.607,1.669 M114.855,107.225l3.46,3.266
		 M117.261,106.642l2.048,1.863l1.607-1.188 M117.886,107.021l1.658-1.597l1.946,2.365 M111.568,110.583
		c0,0,1.525,0.103,1.761-0.328s0.851-1.382,1.188-2.611s0.716-2.089,1.044-2.181c0.327-0.102,1.044,0.615,1.044,0.615
		 M119.166,103.805c0,0-0.287-1.28-0.472-1.566c-0.194-0.276-0.194-0.471-0.194-0.471l-1.761,1.607"/>
	<path fill="#F6EB14" d="M110.094,193.867c0,10.443-8.457,18.9-18.88,18.9c-10.434,0-18.891-8.457-18.891-18.9
		c0-10.424,8.457-18.881,18.891-18.881C101.637,174.986,110.094,183.443,110.094,193.867"/>
	<path fill="none" stroke="#231F20" stroke-width="0.3774" stroke-linecap="round" stroke-linejoin="round" d="M97.438,202.15
		l-0.164-2.673l0.993-0.84 M91.592,194.87l-0.583,0.082l0.164,0.84 M91.848,194.706l1.659-0.081v-0.922 M94.183,191.041l0.082,0.901
		 M93.507,192.781l1.26-0.163 M94.94,193.212l-0.092-1.096 M94.849,194.788l0.747-1.249 M91.428,193.037l0.922,0.84 M89.503,194.625
		l0.748,0.665 M89.002,193.119l0.164,1.014 M87.661,192.372l0.757,1.085 M86.166,192.536l1.331,1.423v0.666 M96.937,188.194v0.993
		 M90.087,193.119l0.922-0.747l-0.092-0.594l4.106-3.922l1.495,1.331l-0.42,1.096l0.256,1.751l3-2.386l1.178,0.982 M88.5,191.205
		l3.512-3.431l3.174,3.349 M89.913,193.037l-2.54-2.836 M85.654,191.041c0,0,1.331-0.256,1.587-0.594
		c0.051-0.072,0.092-0.153,0.133-0.246c0.154-0.389,0.205-0.921,0.205-0.921l1.423-1.506l4.341,4.516 M94.347,209.758h0.676
		l0.164-1.004l0.327-0.501h0.584 M96.436,208.334l0.839,0.584l-0.338,0.584h-0.338l-0.245-0.584 M93.087,206.399v1.014
		 M92.76,208.672l-0.093-1.679 M95.104,209l-0.134-0.082l-1.208-0.758 M94.265,210.331v-1.004 M96.773,207.751h0.665
		 M97.612,208.754v-1.515 M95.77,204.32l-0.42-1.341 M96.855,204.822l1.505,1.577l0.245,0.594 M94.347,205.744l0.338-0.84
		l1.249,1.413l1.003,0.256 M90.752,209.502l0.922-1.249v-1.762l0.594-0.42l1.659-2.089h0.594 M98.943,200.553v-1.331
		 M98.524,201.484v-1.27 M97.274,202.488l0.676-0.676 M96.098,201.73l2.017,2.007 M95.678,199.222v1.833 M91.848,203.481l1.75-2.345
		 M90.087,200.471l0.922,1.26 M91.09,200.051v1.004h1.085v1.352 M93.343,198.475l-1.075,0.921 M92.268,196.795l0.737-1.167
		l1.26-0.594l0.84-0.082l0.911,0.512l0.502,1.004l0.338,1.413l-0.082,1.259 M85.152,190.529c0,0,0.502,0.921,0.676,1.669
		c0.164,0.758,0.748,2.672,0.748,2.672 M91.674,197.963v1.351 M91.592,198.72h-1.003 M90.589,198.3v0.666 M90.497,197.205h1.096
		v-0.901 M90.415,197.799v-1.086 M88.664,207.996h1.75l0.256-0.839h-2.253 M87.323,210.003v-1.331h1.095v1.168h-0.501l0.369,0.368
		h-0.707 M87.917,208.16v-0.573h-0.758v-0.676h-0.328 M85.654,208.672v-0.594h1.843 M84.732,207.915h0.502 M84.732,208.754v-1.423
		 M85.572,210.085v-0.839 M89.995,204.74l0.757,0.84 M91.172,205.744v0.655 M90.415,203.307l1.014,1.516 M88.746,200.471
		l1.587,1.936 M89.34,197.799l0.655,1.597 M85.49,202.232l1.669-1.096 M85.746,199.222l1.003-1.003 M89.166,206.829l-1.925-2.509
		 M85.91,205.58l1.331-1.096 M86.166,206.747l0.819-0.839 M90.333,196.304l-1.915-1.352h-0.594l-1.915,1.434l-0.164,2.334
		l-0.338,0.922l-0.174,3.01l-0.583,2.335l-0.502,0.758l0.84,0.327l0.338,0.502 M96.855,207.157h2.252 M93.681,207.157h2.253
		 M84.066,207.157h2.263 M97.612,193.539v-0.921v-0.584 M97.776,196.959v-1.577 M101.043,196.13v1.331h-1.434v0.839h-1.915v-0.583
		 M98.196,204.402l0.911-1.423c0,0,0.84-1.751,0.84-2.007c0-0.246,0.42-1.413,0.42-1.413l1.331-1.423 M105.21,196.959
		c0,0-1.085,2.683-1.249,3.021c-0.164,0.317-1.26,1.587-1.26,1.587l-0.245-0.758l0.163-0.921l1.26-2.007l0.747-0.737 M98.688,205.16
		l2.263-3.092l0.175-2.181l1.494-1.844 M99.947,206.491l1.178-0.993l0.747-1.434l-0.328-0.665l-1.177,1.423l-1.004,0.922
		 M100.705,195.546v-2.509 M101.196,192.699v-1.167 M99.865,192.034v-0.993 M99.445,194.287v-1.588 M102.281,193.037v3.513h0.758
		v1.167 M102.701,189.689l1.424-0.84v-0.655 M102.036,187.601l1.177-0.409l0.328-1.178 M98.032,187.692l1.249-0.932l0.164,1.27
		c0,0,0.502,0.41,0.84,0.41s0.84-0.84,0.84-0.84v-0.922 M106.274,194.194v1.618 M105.139,194.481v0.43 M106.93,197.368
		c0,0-1.505-1.146-1.607-1.556c-0.092-0.431-0.758,0.9-1.136,0.9c-0.379,0-0.901-0.676-0.901-0.676l-0.144-2.088l0.328-0.041v-1.557
		 M105.804,191.819v2.048 M103.193,190.877l-0.717-0.522 M105.139,190.068l-1.147,1.137 M104.094,187.519l-3.461,3.267
		 M107.36,190.877c0,0-1.505,0.103-1.751-0.327c-0.235-0.431-0.86-1.383-1.188-2.621c-0.328-1.229-0.707-2.089-1.045-2.171
		c-0.327-0.103-1.034,0.614-1.034,0.614 M100.285,184.427c0,0-0.226-1.618-0.031-1.895c0.185-0.276,0.185-0.471,0.185-0.471
		l1.751,1.607 M97.981,204.813c0.133,0.235,0.799,0.563,0.799,0.809s0.809,0.287,0.809,0.614c0,0.328,0.799,1.004,0.799,1.004
		s0.521,0.327,0.768,0.184c0.226-0.143,3.174-3.42,3.737-4.218c0.573-0.819,2.847-6.451,2.847-9.676c0-3.226-1.229-6.911-3.317-9.86
		c-2.079-2.938-4.925-4.311-5.355-4.311c-0.768-0.338-1.556,0.522-1.751,0.993c-0.194,0.471,0.041,1.516,0.328,1.986
		c0.276,0.471,0.614,1.096,0.276,1.904c-0.226,0.563-1.372,1.495-1.986,1.945l-1.034-0.952c-0.911-1.239-1.475-5.56-1.475-5.56
		s0.563-0.185,1.045-0.133c0.471,0.041,1.515,0.286,1.515,0.286s-1.146-2.56-2.795-2.242v-0.512c0,0-1.751-0.041-2.56,0.389
		c-0.809,0.431-2.181,1.741-2.232,1.936c-0.041,0.185,0.666,0.573,0.666,0.573s-0.276,4.495-0.614,4.833
		c-0.338,0.327-1.331,1.423-1.75,1.423c-0.43,0-1.956-1.331-2.273-2.13c-0.338-0.809-0.491-1.29-0.205-1.761
		c0.297-0.471,0.522-1.516,0.338-1.986c-0.194-0.471-0.993-1.331-1.751-0.993c-0.43,0-3.276,1.372-5.355,4.311
		c-2.088,2.949-3.328,6.635-3.328,9.86c0,3.225,2.273,8.856,2.857,9.676c0.563,0.798,3.501,4.075,3.737,4.218
		c0.236,0.144,0.758-0.184,0.758-0.184s0.809-0.676,0.809-1.004c0-0.327,0.809-0.368,0.809-0.614s0.655-0.573,0.799-0.809
		 M84.896,198.454v0.624 M84.65,190.068l2.048-2.938l0.563,1.044 M84.364,197.03l0.061,1.147 M84.742,193.007v3.706 M84.179,203.635
		c0,0,0.43-0.246,0.563-0.666c0.154-0.43,0.051-0.9,0.051-0.9s-0.86-2.242-1.085-2.897c-0.246-0.655-0.716-1.618-0.716-1.618
		 M82.039,193.867v-1.577 M81.711,197.747c0,0,0.953-0.133,0.953-0.327s0.143-1.956,0.143-1.956l-0.287-0.512l-0.051-0.758
		 M75.589,194.194v1.618 M76.735,194.481v0.43 M80.483,194.911v0.983 M80.575,191.819v1.996h0.43v0.81 M82.94,205.57
		c0,0-0.993-2.847-1.413-3.502c-0.43-0.666-0.676-2.755-1.147-3.328c-0.471-0.563-0.85-1.843-0.85-1.843l0.901-0.758l1.28,1.884
		l0.574,1.331l0.471,2.283l1.239,1.751l-0.062,1.229 M81.005,205.191v-0.901c0,0-1.055-2.273-1.239-2.847
		c-0.194-0.563-0.993-2.703-1.229-3.174s-0.717-1.188-0.717-1.188 M81.476,207.239c0,0-0.092-0.819-0.092-1.004
		s-1.945-2.416-2.181-3.133s-0.85-2.601-1.003-3.123c-0.133-0.522-1.515-3.133-1.515-3.133 M74.934,197.368
		c0,0,1.515-1.146,1.618-1.556c0.092-0.431,0.748,0.9,1.126,0.9c0.389,0,0.901-0.676,0.901-0.676l0.153-2.088l-0.338-0.041v-1.557
		 M76.07,191.819v2.048 M92.852,178.304c0,0-0.092-0.328-0.471-0.328c-0.378,0-0.901,0.236-0.901,0.236s0.379,0.521,0.573,0.521
		c0.185,0,0.42-0.143,0.42-0.143 M94.991,185.696l-0.594,0.594l-0.696-0.706l0.728-0.728L94.603,185 M93.578,185.553l-0.736,0.737
		l-0.707-0.706l0.737-0.728L93.578,185.553z M91.92,185.553l-0.737,0.737l-0.717-0.706l0.748-0.728L91.92,185.553z M88.387,185.103
		l0.451,0.45l-0.737,0.737l-0.399-0.409 M90.261,185.553l-0.748,0.737l-0.696-0.706l0.727-0.728L90.261,185.553z M81.333,190.631
		l1.188-0.982l1.607,1.699 M78.671,190.877l0.716-0.522 M76.735,190.068l1.137,1.137 M80.575,188.123l-1.607,1.669 M77.77,187.519
		l3.471,3.267 M80.196,186.936l2.048,1.853l1.597-1.188 M80.811,187.313l1.659-1.597l1.956,2.354 M74.503,190.877
		c0,0,1.516,0.103,1.761-0.327c0.225-0.431,0.85-1.383,1.188-2.621c0.317-1.229,0.707-2.089,1.034-2.171
		c0.338-0.103,1.044,0.614,1.044,0.614 M82.09,184.099c0,0-0.276-1.29-0.471-1.566c-0.185-0.276-0.185-0.471-0.185-0.471
		l-1.761,1.607"/>
	<path fill="#F6EB14" d="M73.51,113.583c0,10.434-8.458,18.891-18.88,18.891c-10.434,0-18.891-8.458-18.891-18.891
		s8.458-18.88,18.891-18.88C65.053,94.703,73.51,103.15,73.51,113.583"/>
	<path fill="none" stroke="#231F20" stroke-width="0.3774" stroke-linecap="round" stroke-linejoin="round" d="M60.855,121.856
		l-0.164-2.672l0.993-0.839 M55.009,114.577l-0.584,0.092l0.164,0.839 M55.265,114.413l1.659-0.082v-0.911 M57.599,110.748
		l0.082,0.911 M56.923,112.498l1.259-0.174 M58.357,112.918l-0.092-1.096 M58.265,114.495l0.748-1.249 M54.845,112.744l0.921,0.839
		 M52.92,114.331l0.748,0.666 M52.418,112.826l0.164,1.014 M51.077,112.079l0.758,1.085 M49.572,112.242l1.341,1.423v0.666
		 M60.354,107.901v0.993 M53.503,112.826l0.921-0.747l-0.092-0.594l4.105-3.921l1.495,1.331l-0.42,1.096l0.256,1.751l3-2.386
		l1.178,0.993 M51.917,110.911l3.512-3.43l3.174,3.348 M53.33,112.744l-2.54-2.836 M49.07,110.748c0,0,1.331-0.256,1.587-0.594
		c0.051-0.071,0.092-0.153,0.133-0.246c0.154-0.389,0.205-0.921,0.205-0.921l1.423-1.505l4.341,4.516 M57.763,129.464h0.676
		l0.164-1.003l0.328-0.502h0.583 M59.852,128.041l0.84,0.584l-0.338,0.583h-0.338l-0.246-0.583 M56.503,126.116v1.003
		 M56.186,128.379l-0.103-1.68 M58.521,128.706l-0.133-0.081l-1.208-0.748 M57.681,130.048v-1.004 M60.189,127.457h0.666
		 M61.029,128.461v-1.505 M59.176,124.027l-0.399-1.341 M60.271,124.529l1.505,1.587l0.246,0.583 M57.763,125.44l0.338-0.83
		l1.25,1.423l1.003,0.246 M54.169,129.208l0.921-1.249v-1.761l0.584-0.42l1.669-2.089h0.594 M62.36,120.259v-1.331 M61.94,121.191
		v-1.259 M60.691,122.194l0.676-0.676 M59.514,121.437l2.017,2.007 M59.094,118.928v1.843 M55.265,123.188l1.751-2.334
		 M53.503,120.177l0.921,1.26 M54.507,119.768v1.003h1.085v1.341 M56.759,118.181l-1.085,0.922 M55.674,116.512l0.747-1.177
		l1.26-0.583l0.839-0.082l0.911,0.501l0.502,1.003l0.338,1.413l-0.082,1.259 M48.568,110.246c0,0,0.501,0.921,0.676,1.659
		c0.164,0.758,0.748,2.672,0.748,2.672 M55.09,117.679v1.341 M55.009,118.427h-1.003 M54.005,118.007v0.676 M53.913,116.921h1.096
		v-0.911 M53.831,117.505v-1.075 M52.08,127.713h1.751l0.256-0.839h-2.252 M50.739,129.71v-1.331h1.096v1.167h-0.501l0.368,0.379
		h-0.706 M51.333,127.877v-0.583h-0.758v-0.676h-0.328 M49.07,128.379v-0.584h1.843 M48.148,127.621h0.502 M48.148,128.461v-1.424
		 M48.988,129.792v-0.84 M53.411,124.447l0.758,0.839 M54.589,125.44v0.676 M53.831,123.024l1.014,1.505 M52.162,120.177
		l1.587,1.936 M52.756,117.505l0.655,1.598 M48.906,121.938l1.669-1.085 M49.162,118.928l1.003-1.003 M52.582,126.536l-1.925-2.509
		 M49.326,125.287l1.331-1.096 M49.572,126.454l0.829-0.83 M53.749,116.01l-1.915-1.341h-0.594l-1.915,1.423l-0.164,2.334
		l-0.338,0.921l-0.174,3.01l-0.584,2.345l-0.491,0.737l0.829,0.338l0.338,0.502 M60.271,126.874h2.252 M57.097,126.874h2.253
		 M47.483,126.874h2.263 M61.029,113.246v-0.921v-0.583 M61.193,116.676v-1.587 M64.459,115.836v1.331h-1.433v0.84h-1.915v-0.583
		 M61.613,124.109l0.911-1.423c0,0,0.84-1.751,0.84-2.007c0-0.246,0.419-1.413,0.419-1.413l1.331-1.423 M68.626,116.676
		c0,0-1.075,2.672-1.25,3.01c-0.164,0.328-1.259,1.587-1.259,1.587l-0.246-0.758l0.164-0.921l1.259-2.007l0.747-0.737
		 M62.104,124.867l2.263-3.092l0.174-2.181l1.495-1.833 M63.364,126.198l1.177-0.994l0.737-1.423l-0.328-0.676l-1.167,1.423
		l-1.003,0.912 M64.121,115.252v-2.508 M64.623,112.417v-1.178 M63.282,111.741v-0.993 M62.862,114.003v-1.587 M65.698,112.744
		v3.512h0.757v1.167 M66.118,109.406l1.434-0.84v-0.666 M65.452,107.317l1.178-0.42l0.328-1.177 M61.449,107.399l1.25-0.922
		l0.164,1.26c0,0,0.502,0.409,0.839,0.409c0.338,0,0.84-0.829,0.84-0.829v-0.921 M69.691,113.901v1.618 M68.555,114.188v0.43
		 M70.347,117.075c0,0-1.505-1.126-1.608-1.557c-0.092-0.43-0.757,0.901-1.136,0.901s-0.901-0.666-0.901-0.666l-0.143-2.089
		l0.328-0.051v-1.556 M69.21,111.536v2.038 M66.609,110.583l-0.717-0.522 M68.555,109.775l-1.147,1.136 M67.51,107.225l-3.461,3.266
		 M70.776,110.583c0,0-1.505,0.103-1.75-0.328c-0.246-0.43-0.86-1.382-1.188-2.611s-0.707-2.089-1.044-2.181
		c-0.328-0.102-1.034,0.615-1.034,0.615 M63.701,104.143c0,0-0.225-1.618-0.03-1.904c0.184-0.276,0.184-0.471,0.184-0.471
		l1.751,1.607 M61.397,124.519c0.133,0.246,0.799,0.574,0.799,0.809c0,0.246,0.809,0.287,0.809,0.625
		c0,0.317,0.798,0.993,0.798,0.993s0.522,0.328,0.768,0.185c0.225-0.144,3.174-3.42,3.737-4.219c0.573-0.798,2.846-6.45,2.846-9.676
		c0-3.225-1.229-6.911-3.317-9.86c-2.079-2.938-4.935-4.311-5.355-4.311c-0.758-0.338-1.566,0.522-1.751,0.993
		c-0.194,0.471,0.041,1.515,0.328,1.997c0.277,0.471,0.615,1.085,0.277,1.894c-0.226,0.563-1.372,1.505-1.986,1.945l-1.034-0.952
		c-0.912-1.229-1.475-5.549-1.475-5.549s0.563-0.195,1.044-0.144c0.471,0.041,1.515,0.287,1.515,0.287s-1.146-2.56-2.795-2.232
		v-0.512c0,0-1.751-0.051-2.56,0.378c-0.809,0.43-2.181,1.751-2.232,1.936c-0.041,0.184,0.666,0.573,0.666,0.573
		s-0.287,4.505-0.614,4.833c-0.338,0.338-1.331,1.423-1.751,1.423c-0.43,0-1.956-1.321-2.273-2.13
		c-0.338-0.809-0.491-1.28-0.205-1.75c0.297-0.481,0.522-1.526,0.338-1.997c-0.195-0.471-0.993-1.331-1.751-0.993
		c-0.43,0-3.276,1.372-5.355,4.311c-2.089,2.949-3.328,6.635-3.328,9.86c0,3.226,2.273,8.877,2.856,9.676
		c0.563,0.799,3.502,4.075,3.737,4.219s0.758-0.185,0.758-0.185s0.809-0.676,0.809-0.993c0-0.338,0.799-0.379,0.799-0.625
		c0-0.235,0.666-0.563,0.809-0.809 M48.313,118.17v0.615 M48.066,109.775l2.048-2.939l0.563,1.044 M47.78,116.748l0.062,1.136
		 M48.159,112.713v3.707 M47.596,123.341c0,0,0.43-0.246,0.563-0.666c0.154-0.43,0.051-0.901,0.051-0.901s-0.86-2.232-1.085-2.898
		c-0.246-0.655-0.717-1.607-0.717-1.607 M45.456,113.573v-1.566 M45.128,117.454c0,0,0.942-0.133,0.942-0.328
		c0-0.184,0.154-1.945,0.154-1.945l-0.287-0.512l-0.051-0.768 M39.005,113.901v1.618 M40.152,114.188v0.43 M43.899,114.618v0.993
		 M43.992,111.536v1.986h0.43v0.809 M46.357,125.276c0,0-0.993-2.846-1.413-3.501c-0.43-0.666-0.676-2.744-1.147-3.328
		c-0.471-0.563-0.85-1.843-0.85-1.843l0.901-0.758l1.28,1.895l0.573,1.331l0.471,2.273l1.239,1.751l-0.061,1.239 M44.421,124.897
		v-0.901c0,0-1.044-2.273-1.239-2.836c-0.194-0.573-0.993-2.713-1.229-3.184c-0.246-0.471-0.717-1.177-0.717-1.177 M44.893,126.945
		c0,0-0.092-0.809-0.092-0.993c0-0.194-1.945-2.427-2.181-3.144c-0.236-0.696-0.85-2.601-1.003-3.123
		c-0.133-0.522-1.516-3.133-1.516-3.133 M38.35,117.075c0,0,1.515-1.126,1.618-1.557c0.092-0.43,0.747,0.901,1.126,0.901
		c0.389,0,0.901-0.666,0.901-0.666l0.143-2.089l-0.328-0.051v-1.556 M39.486,111.536v2.038 M56.268,98.021
		c0,0-0.092-0.328-0.471-0.328s-0.901,0.225-0.901,0.225s0.389,0.533,0.573,0.533c0.185,0,0.42-0.154,0.42-0.154 M58.408,105.403
		l-0.594,0.594l-0.696-0.707l0.727-0.737l0.174,0.164 M56.985,105.259l-0.727,0.737l-0.707-0.707l0.737-0.737L56.985,105.259z
		 M55.336,105.259l-0.737,0.737l-0.717-0.707l0.748-0.737L55.336,105.259z M51.804,104.809l0.451,0.451l-0.737,0.737l-0.399-0.399
		 M53.678,105.259l-0.748,0.737l-0.696-0.707l0.737-0.737L53.678,105.259z M44.749,110.348l1.188-0.993l1.607,1.7 M42.087,110.583
		l0.717-0.522 M40.152,109.775l1.137,1.136 M43.992,107.829l-1.608,1.669 M41.186,107.225l3.471,3.266 M43.613,106.642l2.048,1.863
		l1.597-1.188 M44.227,107.021l1.659-1.597l1.956,2.365 M37.92,110.583c0,0,1.515,0.103,1.761-0.328
		c0.225-0.43,0.85-1.382,1.188-2.611c0.317-1.229,0.707-2.089,1.034-2.181c0.338-0.102,1.044,0.615,1.044,0.615 M45.507,103.805
		c0,0-0.276-1.28-0.471-1.566c-0.185-0.276-0.185-0.471-0.185-0.471l-1.761,1.607"/>
	<rect x="22.685" y="149.696" fill="#FFFFFF" width="8.109" height="8.498"/>
	<rect x="151.633" y="149.86" fill="#FFFFFF" width="9.062" height="8.334"/>
	<rect x="30.783" y="149.327" fill="#3953A4" width="9.287" height="8.867"/>
	<rect x="40.07" y="149.327" fill="#FFFFFF" width="9.287" height="8.867"/>
	<rect x="49.357" y="149.327" fill="#3953A4" width="9.287" height="8.867"/>
	<rect x="59.421" y="149.327" fill="#FFFFFF" width="9.492" height="8.867"/>
	<rect x="67.94" y="149.327" fill="#3953A4" width="9.287" height="8.867"/>
	<rect x="77.227" y="149.327" fill="#FFFFFF" width="9.287" height="8.867"/>
	<rect x="86.524" y="149.327" fill="#3953A4" width="9.297" height="8.867"/>
	<rect x="95.821" y="149.327" fill="#FFFFFF" width="9.286" height="8.867"/>
	<rect x="105.107" y="149.327" fill="#3953A4" width="9.287" height="8.867"/>
	<rect x="114.395" y="149.327" fill="#FFFFFF" width="9.286" height="8.867"/>
	<rect x="123.681" y="149.327" fill="#3953A4" width="9.297" height="8.867"/>
	<rect x="132.978" y="149.327" fill="#FFFFFF" width="9.287" height="8.867"/>
	<rect x="142.274" y="149.327" fill="#3953A4" width="9.287" height="8.867"/>
	<rect x="58.644" y="149.327" fill="#FFFFFF" width="9.297" height="8.867"/>
	<rect x="30.783" y="140.922" fill="#FFFFFF" width="9.287" height="8.877"/>
	<rect x="40.07" y="140.922" fill="#3953A4" width="9.287" height="8.877"/>
	<rect x="49.357" y="140.922" fill="#FFFFFF" width="9.287" height="8.877"/>
	<rect x="67.94" y="140.922" fill="#FFFFFF" width="9.287" height="8.877"/>
	<rect x="77.227" y="140.922" fill="#3953A4" width="9.287" height="8.877"/>
	<rect x="86.524" y="140.922" fill="#FFFFFF" width="9.297" height="8.877"/>
	<rect x="95.821" y="140.922" fill="#3953A4" width="9.286" height="8.877"/>
	<rect x="105.107" y="140.922" fill="#FFFFFF" width="9.287" height="8.877"/>
	<rect x="114.395" y="140.922" fill="#3953A4" width="9.286" height="8.877"/>
	<rect x="123.681" y="140.922" fill="#FFFFFF" width="9.297" height="8.877"/>
	<rect x="132.978" y="140.922" fill="#3953A4" width="9.287" height="8.877"/>
	<rect x="142.274" y="140.922" fill="#FFFFFF" width="9.287" height="8.877"/>
	<rect x="58.644" y="140.922" fill="#3953A4" width="9.297" height="8.877"/>
	<rect x="30.783" y="158.307" fill="#FFFFFF" width="9.287" height="8.878"/>
	<rect x="40.07" y="158.307" fill="#3953A4" width="9.287" height="8.878"/>
	<rect x="49.357" y="158.307" fill="#FFFFFF" width="9.287" height="8.878"/>
	<rect x="67.94" y="158.307" fill="#FFFFFF" width="9.287" height="8.878"/>
	<rect x="77.227" y="158.307" fill="#3953A4" width="9.287" height="8.878"/>
	<rect x="86.524" y="158.307" fill="#FFFFFF" width="9.297" height="8.878"/>
	<rect x="95.821" y="158.307" fill="#3953A4" width="9.286" height="8.878"/>
	<rect x="105.107" y="158.307" fill="#FFFFFF" width="9.287" height="8.878"/>
	<rect x="114.395" y="158.307" fill="#3953A4" width="9.286" height="8.878"/>
	<rect x="123.681" y="158.307" fill="#FFFFFF" width="9.297" height="8.878"/>
	<rect x="132.978" y="158.307" fill="#3953A4" width="9.287" height="8.878"/>
	<rect x="142.274" y="158.307" fill="#FFFFFF" width="9.287" height="8.878"/>
	<rect x="58.644" y="158.307" fill="#3953A4" width="9.297" height="8.878"/>
	<path fill="#F6EB14" d="M91.5,243.034c0,0-1.331-1.116-2.048-2.591c-0.717-1.464-0.717-3.204-0.717-3.204s-3.164,0.532-3.164-2.232
		c0-2.774,2.938-2.416,3.123-2.324c0,0-3.226-6.973-8.908-10.536c-5.683-3.553-16.3-7.495-21.522-9.624
		c-5.232-2.12-10.843-5.304-11.908-8.714c-1.741-5.231,0.983-8.488,0.983-8.488s-2.048,1.741-4.997,1.444
		c-2.959-0.308-7.198-1.751-10.689-7.884c-2.273-4.628-2.652-4.25-4.321-9.86c-1.669-5.611-2.959-12.512-5.458-16.29
		c0,0-3.645-4.781-6.44-5.908c-2.508-1.679-5.683-0.84-5.683-0.84s2.191,1.127,1.362,3.093c-1.433,1.679-3.266,1.034-4.014,0.389
		c-0.532-0.45-1.146-1.894-0.153-3.481c1.587-1.597,3.021-1.597,3.021-1.597s-1.434,0-3.021-1.598
		c-0.993-1.597-0.379-3.041,0.153-3.491c0.748-0.635,2.581-1.28,4.014,0.379c0.83,1.966-1.362,3.112-1.362,3.112
		s3.174,0.451,5.683-1.208c0,0,8.672-5.713,8.55-13.628c-0.133-7.915-1.771-11.929-10.311-14.324
		c0.757,1.137,1.464,3.819-0.635,4.402c-2.078,0.584-3.768-0.696-3.88-2.508c-0.082-2.15,2.765-5.15,4.771-6.666
		c0,0,7.822-7.536,10.812-13.669c0,0,2.867-6.809,2.488-9.819c-0.481-5.15-3.215-7.505-3.215-7.505s0.45,2.181-1.546,2.949
		c-2.201,0.123-3.01-1.638-3.072-2.621c-0.041-0.686,0.563-2.129,2.406-2.529c2.252,0.031,3.246,1.065,3.246,1.065
		s-0.993-1.034-0.962-3.287c0.461-1.813,1.915-2.375,2.611-2.314c0.983,0.092,2.723,0.953,2.529,3.144
		c-0.84,1.976-2.13,1.72-2.13,1.72s0.993,1.822,3.932,2.468c0,0,8.385,1.208,16.116-3.123c9.492-4.556,11.068-4.874,11.068-4.874
		s6.789-2.642,11.14-1.219c4.361,1.413,6.419,6.666,6.419,6.666s-0.717-3.748,2.54-6.215c3.707-3.604,12.932-3.154,12.932-3.154
		h0.522c0,0,9.215-0.45,12.912,3.154c3.266,2.467,2.549,6.215,2.549,6.215s2.048-5.252,6.41-6.666
		c4.361-1.423,11.14,1.219,11.14,1.219s1.587,0.317,11.079,4.874c7.72,4.331,16.126,3.123,16.126,3.123
		c2.928-0.646,3.932-2.468,3.932-2.468s-1.301,0.256-2.13-1.72c-0.205-2.191,1.525-3.051,2.509-3.144
		c0.706-0.061,2.15,0.502,2.61,2.314c0.041,2.252-0.962,3.287-0.962,3.287s1.003-1.034,3.267-1.065
		c1.822,0.399,2.437,1.843,2.396,2.529c-0.062,0.983-0.87,2.744-3.071,2.621c-1.987-0.768-1.536-2.949-1.536-2.949
		s-2.744,2.355-3.226,7.505c-0.389,3.01,2.478,9.819,2.478,9.819c2.99,6.133,10.823,13.669,10.823,13.669
		c2.007,1.516,4.843,4.516,4.771,6.666c-0.123,1.812-1.803,3.092-3.892,2.508c-2.088-0.583-1.382-3.266-0.635-4.402
		c-8.528,2.396-10.167,6.409-10.29,14.324c-0.133,7.915,8.539,13.628,8.539,13.628c2.499,1.659,5.683,1.208,5.683,1.208
		s-2.201-1.146-1.361-3.112c1.434-1.659,3.267-1.014,4.014-0.379c0.532,0.45,1.137,1.895,0.153,3.491
		c-1.597,1.598-3.03,1.598-3.03,1.598s1.434,0,3.03,1.597c0.983,1.588,0.379,3.031-0.153,3.481c-0.747,0.646-2.58,1.29-4.014-0.389
		c-0.84-1.966,1.361-3.093,1.361-3.093s-3.184-0.839-5.683,0.84c-2.805,1.127-6.45,5.908-6.45,5.908
		c-2.488,3.778-3.778,10.679-5.447,16.29c-1.669,5.61-2.058,5.232-4.32,9.86c-3.491,6.133-7.741,7.576-10.689,7.884
		c-2.959,0.297-5.007-1.444-5.007-1.444s2.724,3.257,0.982,8.488c-1.055,3.41-6.665,6.594-11.897,8.714
		c-5.231,2.129-15.84,6.071-21.522,9.624c-5.682,3.563-8.918,10.536-8.918,10.536c0.185-0.092,3.134-0.45,3.134,2.324
		c0,2.765-3.175,2.232-3.175,2.232s0,1.74-0.706,3.204C92.831,241.918,91.5,243.034,91.5,243.034 M74.35,87.874
		c0,0-1.403-3.87-3.123-4.741c-1.73-0.86-7.556-1.188-12.194,0.646c-4.639,1.833-11.54,4.956-14.775,5.938
		c-9.492,4.628-18.225-2.058-18.225-2.058s5.068,4.751,2.805,14.672c-1.413,5.068-2.805,8.519-6.573,12.072
		c-3.778,3.563-9.604,8.099-9.604,8.099s4.956-1.29,9.809,2.806c3.451,4.085,6.799,9.389,4.321,17.14
		c-4.208,11.651-14.129,11.549-14.129,11.549s9.481,0.963,13.7,11.427c4.208,10.465,4.638,16.73,7.976,21.563
		c6.645,12.799,12.553,6.809,12.553,6.809s-2.417,0.563-3.062-1.464c0.01-2.212,1.813-2.908,2.806-2.908
		c0.696,0,2.088,0.696,2.386,2.55c-0.185,2.253-1.27,3.185-1.27,3.185s1.096-0.932,3.348-0.758c1.782,0.573,2.253,2.058,2.15,2.754
		c-0.154,0.973-1.126,2.652-3.297,2.314c-1.915-0.952-0.983-3.246-0.983-3.246s-2.621,2.519-1.208,5.468
		c1.413,2.959,2.324,4.055,14.765,8.733c3.01,0.993,4.229,1.352,14.14,5.908c11.99,6.45,14.836,19.085,14.836,19.085
		s2.847-12.635,14.836-19.085c9.901-4.557,11.141-4.915,14.141-5.908c12.43-4.679,13.352-5.774,14.764-8.733
		c1.413-2.949-1.208-5.468-1.208-5.468s0.942,2.294-0.982,3.246c-2.181,0.338-3.144-1.342-3.297-2.314
		c-0.113-0.696,0.379-2.181,2.16-2.754c2.242-0.174,3.327,0.758,3.327,0.758s-1.085-0.932-1.259-3.185
		c0.286-1.854,1.679-2.55,2.386-2.55c0.982,0,2.795,0.696,2.806,2.908c-0.646,2.027-3.062,1.464-3.062,1.464
		s5.897,5.99,12.553-6.809c3.348-4.833,3.778-11.099,7.976-21.563c4.209-10.464,13.7-11.427,13.7-11.427s-9.922,0.103-14.13-11.549
		c-2.478-7.751,0.86-13.055,4.311-17.14c4.854-4.096,9.819-2.806,9.819-2.806s-5.826-4.536-9.594-8.099
		c-3.778-3.553-5.182-7.003-6.573-12.072c-2.273-9.921,2.795-14.672,2.795-14.672s-8.734,6.686-18.235,2.058
		c-3.226-0.983-10.137-4.106-14.775-5.938c-4.628-1.833-10.464-1.505-12.174-0.646c-1.73,0.871-3.133,4.741-3.133,4.741
		l-0.103,0.338c0,0,1.679-2.038,3.43-0.44c1.547,2.037,0.031,3.645-0.85,4.218c-0.624,0.399-2.283,0.563-3.604-0.921
		c-1.137-2.12-0.696-3.584-0.696-3.584s-0.44,1.464-2.561,2.591c-1.925,0.522-3.204-0.543-3.501-1.219
		c-0.431-0.973-0.522-3.031,1.617-3.983c2.273-0.246,2.744,2.345,2.744,2.345v-0.112c0,0,1.29-3.43-1.167-5.396
		c-2.478-1.966-4.331-1.352-7.096-1.352c-2.744,0.676-5.201,0.901-5.201,0.901h-0.338c0,0-2.447-0.225-5.202-0.901
		c-2.744,0-4.607-0.614-7.075,1.352c-2.478,1.966-1.177,5.396-1.177,5.396l-0.01,0.112c0,0,0.481-2.59,2.744-2.345
		c2.15,0.952,2.048,3.01,1.628,3.983c-0.307,0.676-1.587,1.741-3.502,1.219c-2.119-1.126-2.57-2.591-2.57-2.591
		s0.44,1.464-0.696,3.584c-1.311,1.484-2.959,1.321-3.594,0.921c-0.891-0.573-2.386-2.181-0.85-4.218
		c1.75-1.598,3.43,0.44,3.43,0.44L74.35,87.874z"/>
	<polygon fill="none" stroke="#FFFFFF" stroke-width="1.8977" points="91.981,40.856 105.599,40.856 103.388,13.314 104.237,12.146
		105.281,11.625 105.466,8.369 101.964,6.618 101.964,8.43 99.425,7.601 99.363,5.768 96.118,5.317 95.79,6.822 93.845,6.884
		93.65,5.123 91.981,5 90.313,5.123 90.128,6.884 88.183,6.822 87.855,5.317 84.599,5.768 84.538,7.601 81.999,8.43 81.999,6.618
		78.497,8.369 78.691,11.625 79.735,12.146 80.575,13.314 78.364,40.856 	"/>
	<polygon fill="#231F20" points="91.981,40.856 105.599,40.856 103.388,13.314 104.237,12.146 105.281,11.625 105.466,8.369
		101.964,6.618 101.964,8.43 99.425,7.601 99.363,5.768 96.118,5.317 95.79,6.822 93.845,6.884 93.65,5.123 91.981,5 90.313,5.123
		90.128,6.884 88.183,6.822 87.855,5.317 84.599,5.768 84.538,7.601 81.999,8.43 81.999,6.618 78.497,8.369 78.691,11.625
		79.735,12.146 80.575,13.314 78.364,40.856 	"/>
	<path fill="none" stroke="#FFFFFF" stroke-width="0.3774" d="M91.817,35.276V31.12 M91.817,14.932v-3.696 M95.34,38.512
		l-0.205-3.051 M101.637,38.583l0.071-2.795 M97.213,35.522l-0.184-4.218 M102.865,35.727l0.071-3.707 M95.34,31.232l0.062-4.085
		 M101.708,31.754l0.062-3.962 M99.753,27.341l0.122-3.512 M95.596,22.918l0.071-4.28 M99.036,23.512l-0.062-4.034 M96.763,18.771
		v-2.867 M101.637,20.01l0.071-2.867 M98.514,16.17l0.062-3.829 M105.016,35.983c0,0-10.997-0.819-13.034-0.635
		c-2.027-0.185-13.034,0.635-13.034,0.635 M104.688,32.287c0,0-7.822-1.413-12.645-1.167H91.92
		c-4.823-0.246-12.645,1.167-12.645,1.167 M104.493,28.181c0,0-7.74-1.362-10.863-1.095 M104.104,24.741
		c0,0-7.741-1.946-10.536-1.679 M103.981,21.106c0,0-6.021-2.662-12-2.662c-5.969,0-11.99,2.662-11.99,2.662 M103.715,17.666
		c0,0-5.61-2.048-11.733-2.59c-6.123,0.542-11.734,2.59-11.734,2.59 M103.326,13.826c0,0-6.789-2.59-11.345-2.662
		c-4.546,0.072-11.345,2.662-11.345,2.662 M88.633,38.512l0.194-3.051 M82.326,38.583l-0.062-2.795 M86.749,35.522l0.195-4.218
		 M81.097,35.727l-0.071-3.707 M88.633,31.232l-0.072-4.085 M82.265,31.754l-0.062-3.962 M84.22,27.341l-0.133-3.512 M88.377,22.918
		l-0.071-4.28 M84.927,23.512l0.062-4.034 M87.2,18.771v-2.867 M82.326,20.01l-0.062-2.867 M85.449,16.17l-0.062-3.829
		 M79.479,28.181c0,0,7.792-1.362,10.915-1.095 M79.869,24.741c0,0,7.72-2.007,10.525-1.751"/>
	<path fill="none" stroke="#FFFFFF" stroke-width="0.3774" stroke-linecap="round" stroke-linejoin="round" d="M91.93,10.467V9.495
		 M92.902,10.652l0.072-0.594h0.461l0.256-0.512 M94.92,10.969v-0.707h0.461V9.802 M96.804,11.235l0.205-0.46l0.327-0.123
		l0.062-0.655 M98.432,11.686l0.39-0.583v-0.389 M100.244,12.146l0.071-0.522h0.39l-0.062-0.655 M101.749,12.659l0.45-0.512v-0.522
		 M90.066,10.652l-0.071-0.594h-0.451l-0.266-0.512 M88.049,10.969v-0.707h-0.46V9.802 M86.166,11.235l-0.194-0.46l-0.328-0.123
		l-0.062-0.655 M84.538,11.686l-0.389-0.583v-0.389 M82.725,12.146l-0.071-0.522h-0.389l0.062-0.655 M81.23,12.659l-0.451-0.512
		v-0.522"/>
	<polygon fill="#FFFFFF" points="91.94,18.986 90.313,20.625 90.313,28.437 93.497,28.437 93.497,20.532 	"/>
	<polygon fill="none" stroke="#231F20" stroke-width="0.2726" points="91.93,19.427 90.609,20.666 90.609,28.252 93.21,28.252
		93.21,20.583 	"/>
	<polygon fill="none" stroke="#231F20" stroke-width="0.2726" stroke-linecap="round" stroke-linejoin="round" points="
		91.981,40.856 105.599,40.856 103.388,13.314 104.237,12.146 105.281,11.625 105.466,8.369 101.964,6.618 101.964,8.43
		99.425,7.601 99.363,5.768 96.118,5.317 95.79,6.822 93.845,6.884 93.65,5.123 91.981,5 90.313,5.123 90.128,6.884 88.183,6.822
		87.855,5.317 84.599,5.768 84.538,7.601 81.999,8.43 81.999,6.618 78.497,8.369 78.691,11.625 79.735,12.146 80.575,13.314
		78.364,40.856 	"/>
	<polygon fill="#231F20" points="91.838,70.068 120.773,70.211 120.773,39.454 117.139,39.454 117.139,41.266 115.111,41.266
		115.111,39.454 111.057,39.454 111.057,41.461 109.029,41.461 109.029,39.454 106.203,39.454 106.203,41.573 103.767,41.573
		103.767,39.454 101.34,39.454 101.34,41.164 98.708,41.164 98.708,39.454 95.872,39.454 95.872,41.358 93.343,41.358
		93.343,39.454 91.838,39.454 90.323,39.454 90.323,41.358 87.804,41.358 87.804,39.454 84.968,39.454 84.968,41.164 82.336,41.164
		82.336,39.454 79.91,39.454 79.91,41.573 77.473,41.573 77.473,39.454 74.637,39.454 74.637,41.461 72.62,41.461 72.62,39.454
		68.565,39.454 68.565,41.266 66.538,41.266 66.538,39.454 62.903,39.454 62.903,70.211 	"/>
	<polygon fill="none" stroke="#FFFFFF" stroke-width="1.8977" points="91.838,70.068 120.773,70.211 120.773,39.454 117.139,39.454
		117.139,41.266 115.111,41.266 115.111,39.454 111.057,39.454 111.057,41.461 109.029,41.461 109.029,39.454 106.203,39.454
		106.203,41.573 103.767,41.573 103.767,39.454 101.34,39.454 101.34,41.164 98.708,41.164 98.708,39.454 95.872,39.454
		95.872,41.358 93.343,41.358 93.343,39.454 91.838,39.454 90.323,39.454 90.323,41.358 87.804,41.358 87.804,39.454 84.968,39.454
		84.968,41.164 82.336,41.164 82.336,39.454 79.91,39.454 79.91,41.573 77.473,41.573 77.473,39.454 74.637,39.454 74.637,41.461
		72.62,41.461 72.62,39.454 68.565,39.454 68.565,41.266 66.538,41.266 66.538,39.454 62.903,39.454 62.903,70.211 	"/>
	<polygon fill="#231F20" points="91.838,70.068 120.773,70.211 120.773,39.454 117.139,39.454 117.139,41.266 115.111,41.266
		115.111,39.454 111.057,39.454 111.057,41.461 109.029,41.461 109.029,39.454 106.203,39.454 106.203,41.573 103.767,41.573
		103.767,39.454 101.34,39.454 101.34,41.164 98.708,41.164 98.708,39.454 95.872,39.454 95.872,41.358 93.343,41.358
		93.343,39.454 91.838,39.454 90.323,39.454 90.323,41.358 87.804,41.358 87.804,39.454 84.968,39.454 84.968,41.164 82.336,41.164
		82.336,39.454 79.91,39.454 79.91,41.573 77.473,41.573 77.473,39.454 74.637,39.454 74.637,41.461 72.62,41.461 72.62,39.454
		68.565,39.454 68.565,41.266 66.538,41.266 66.538,39.454 62.903,39.454 62.903,70.211 	"/>
	<path fill="none" stroke="#FFFFFF" stroke-width="0.3774" d="M63.302,43.693h28.648 M63.302,47.235h28.648 M63.302,50.573h28.648
		 M63.302,54.024h28.648 M63.302,57.352h28.648 M63.302,60.802h28.648 M63.302,64.549h28.648 M63.302,68.092h28.648"/>
	<rect x="65.739" y="44.594" fill="#FFFFFF" width="0.809" height="1.218"/>
	<rect x="68.462" y="44.594" fill="#FFFFFF" width="0.809" height="1.218"/>
	<rect x="71.196" y="44.594" fill="#FFFFFF" width="0.809" height="1.218"/>
	<rect x="73.562" y="44.594" fill="#FFFFFF" width="0.799" height="1.218"/>
	<rect x="76.08" y="44.594" fill="#FFFFFF" width="0.809" height="1.218"/>
	<rect x="78.323" y="44.594" fill="#FFFFFF" width="0.798" height="1.218"/>
	<rect x="80.647" y="44.594" fill="#FFFFFF" width="0.809" height="1.218"/>
	<rect x="83.35" y="44.594" fill="#FFFFFF" width="0.809" height="1.218"/>
	<rect x="86.053" y="44.594" fill="#FFFFFF" width="0.809" height="1.218"/>
	<rect x="88.756" y="44.594" fill="#FFFFFF" width="0.809" height="1.218"/>
	<path fill="none" stroke="#FFFFFF" stroke-width="0.3774" d="M88.408,50.573v-3.338 M82.029,50.573v-3.338 M75.445,50.573v-3.338
		 M84.968,53.921v-3.348 M78.189,53.921v-3.348 M71.708,53.921v-3.348 M82.336,57.464v-3.348 M75.558,57.464v-3.348 M84.968,67.887
		v-3.338 M78.988,67.887v-3.338 M72.107,67.887v-3.338 M68.667,64.242v-3.338 M75.558,64.242v-3.338 M82.428,64.242v-3.338
		 M84.968,60.597v-3.348 M78.886,60.597v-3.348 M72.21,60.597v-3.348 M67.142,60.597v-3.348 M69.077,57.464v-3.348 M66.845,53.921
		v-3.348 M68.975,50.573v-3.338"/>
	<polygon fill="none" stroke="#231F20" stroke-width="0.3774" points="91.838,70.068 120.773,70.211 120.773,39.454 117.139,39.454
		117.139,41.266 115.111,41.266 115.111,39.454 111.057,39.454 111.057,41.461 109.029,41.461 109.029,39.454 106.203,39.454
		106.203,41.573 103.767,41.573 103.767,39.454 101.34,39.454 101.34,41.164 98.708,41.164 98.708,39.454 95.872,39.454
		95.872,41.358 93.343,41.358 93.343,39.454 91.838,39.454 90.323,39.454 90.323,41.358 87.804,41.358 87.804,39.454 84.968,39.454
		84.968,41.164 82.336,41.164 82.336,39.454 79.91,39.454 79.91,41.573 77.473,41.573 77.473,39.454 74.637,39.454 74.637,41.461
		72.62,41.461 72.62,39.454 68.565,39.454 68.565,41.266 66.538,41.266 66.538,39.454 62.903,39.454 62.903,70.211 	"/>
	<path fill="none" stroke="#FFFFFF" stroke-width="0.3774" d="M120.374,43.693H91.715 M120.374,47.235H91.715 M120.374,50.573
		H91.715 M120.374,54.024H91.715 M120.374,57.352H91.715 M120.374,60.802H91.715 M120.374,64.549H91.715 M120.374,68.092H91.715"/>
	<rect x="117.128" y="44.594" fill="#FFFFFF" width="0.809" height="1.218"/>
	<rect x="114.395" y="44.594" fill="#FFFFFF" width="0.809" height="1.218"/>
	<rect x="111.671" y="44.594" fill="#FFFFFF" width="0.809" height="1.218"/>
	<rect x="109.306" y="44.594" fill="#FFFFFF" width="0.809" height="1.218"/>
	<rect x="106.787" y="44.594" fill="#FFFFFF" width="0.809" height="1.218"/>
	<rect x="104.555" y="44.594" fill="#FFFFFF" width="0.799" height="1.218"/>
	<rect x="102.22" y="44.594" fill="#FFFFFF" width="0.81" height="1.218"/>
	<rect x="99.518" y="44.594" fill="#FFFFFF" width="0.809" height="1.218"/>
	<rect x="96.814" y="44.594" fill="#FFFFFF" width="0.809" height="1.218"/>
	<rect x="94.101" y="44.594" fill="#FFFFFF" width="0.799" height="1.218"/>
	<path fill="none" stroke="#FFFFFF" stroke-width="0.3774" d="M95.268,50.573v-3.338 M101.637,50.573v-3.338 M108.22,50.573v-3.338
		 M98.698,53.921v-3.348 M105.486,53.921v-3.348 M111.968,53.921v-3.348 M101.329,57.464v-3.348 M108.118,57.464v-3.348
		 M98.698,67.887v-3.338 M104.678,67.887v-3.338 M111.568,67.887v-3.338 M115.009,64.242v-3.338 M108.118,64.242v-3.338
		 M101.237,64.242v-3.338 M98.698,60.597v-3.348 M104.78,60.597v-3.348 M111.466,60.597v-3.348 M116.524,60.597v-3.348
		 M114.599,57.464v-3.348 M116.831,53.921v-3.348 M114.701,50.573v-3.338"/>
	<polygon fill="#FFFFFF" points="95.801,68.215 87.599,68.215 87.599,56.88 91.807,52.683 95.749,56.625 	"/>
	<polyline fill="none" stroke="#231F20" stroke-width="0.346" points="88.101,68.215 88.101,57.055 91.735,53.43 95.146,56.809
		95.196,68.215 	"/>
	<path fill="#231F20" d="M51.824,74.164c6.901,0.41,14.437-2.396,14.437-2.396v-5.672l-1.802-1.167l-1.812-34.341l0.911-1.822
		l1.423-0.696l-0.01-3.42l-3.185-1.116l0.031,1.689l-2.058-0.399l-0.082-2.109l-3.748-0.655l-0.113,1.853l-2.099-0.307l0.01-1.935
		l-1.904-0.041l-1.904,0.041l0.01,1.935l-2.099,0.307l-0.113-1.853l-3.747,0.655l-0.082,2.109l-2.058,0.399l0.031-1.689
		l-3.184,1.116l-0.01,3.42l1.423,0.696l0.912,1.822l-1.813,34.341l-1.802,1.167v5.672C37.387,71.768,44.923,74.573,51.824,74.164"/>
	<path fill="none" stroke="#FFFFFF" stroke-width="1.8977" d="M51.824,74.164c6.901,0.41,14.437-2.396,14.437-2.396v-5.672
		l-1.802-1.167l-1.812-34.341l0.911-1.822l1.423-0.696l-0.01-3.42l-3.185-1.116l0.031,1.689l-2.058-0.399l-0.082-2.109l-3.748-0.655
		l-0.113,1.853l-2.099-0.307l0.01-1.935l-1.904-0.041l-1.904,0.041l0.01,1.935l-2.099,0.307l-0.113-1.853l-3.747,0.655l-0.082,2.109
		l-2.058,0.399l0.031-1.689l-3.184,1.116l-0.01,3.42l1.423,0.696l0.912,1.822l-1.813,34.341l-1.802,1.167v5.672
		C37.387,71.768,44.923,74.573,51.824,74.164z"/>
	<path fill="#231F20" d="M131.729,74.164c6.901,0.41,14.447-2.396,14.447-2.396v-5.672l-1.822-1.167l-1.803-34.341l0.912-1.822
		l1.433-0.696l-0.01-3.42l-3.194-1.116l0.03,1.689l-2.048-0.399l-0.092-2.109l-3.737-0.655l-0.112,1.853l-2.1-0.307l0.021-1.935
		l-1.925-0.041l-1.904,0.041l0.011,1.935l-2.1,0.307l-0.112-1.853l-3.737,0.655l-0.092,2.109l-2.048,0.399l0.03-1.689l-3.194,1.116
		l-0.011,3.42l1.434,0.696l0.911,1.822l-1.812,34.341l-1.813,1.167v5.672C117.292,71.768,124.838,74.573,131.729,74.164"/>
	<path fill="none" stroke="#FFFFFF" stroke-width="1.8977" d="M131.729,74.164c6.901,0.41,14.447-2.396,14.447-2.396v-5.672
		l-1.822-1.167l-1.803-34.341l0.912-1.822l1.433-0.696l-0.01-3.42l-3.194-1.116l0.03,1.689l-2.048-0.399l-0.092-2.109l-3.737-0.655
		l-0.112,1.853l-2.1-0.307l0.021-1.935l-1.925-0.041l-1.904,0.041l0.011,1.935l-2.1,0.307l-0.112-1.853l-3.737,0.655l-0.092,2.109
		l-2.048,0.399l0.03-1.689l-3.194,1.116l-0.011,3.42l1.434,0.696l0.911,1.822l-1.812,34.341l-1.813,1.167v5.672
		C117.292,71.768,124.838,74.573,131.729,74.164z"/>
	<path fill="#231F20" d="M51.824,74.164c6.901,0.41,14.437-2.396,14.437-2.396v-5.672l-1.802-1.167l-1.812-34.341l0.911-1.822
		l1.423-0.696l-0.01-3.42l-3.185-1.116l0.031,1.689l-2.058-0.399l-0.082-2.109l-3.748-0.655l-0.113,1.853l-2.099-0.307l0.01-1.935
		l-1.904-0.041l-1.904,0.041l0.01,1.935l-2.099,0.307l-0.113-1.853l-3.747,0.655l-0.082,2.109l-2.058,0.399l0.031-1.689
		l-3.184,1.116l-0.01,3.42l1.423,0.696l0.912,1.822l-1.813,34.341l-1.802,1.167v5.672C37.387,71.768,44.923,74.573,51.824,74.164"/>
	<path fill="none" stroke="#FFFFFF" stroke-width="0.3774" d="M52.807,27.679l0.051-1.813 M54.548,27.638l0.205-1.7 M56.565,28.068
		l0.205-1.771 M58.449,28.375l0.451-0.717l-0.021-0.973 M60.21,28.693l0.625-0.911v-0.789 M61.879,29.215l0.911-0.737l0.021-0.666
		 M56.575,73.836v-5.938l-0.901-0.911 M63.159,72.546V67.13l-1.546-1.167 M57.22,66.597V61.57 M63.292,65.184v-4.638 M59.411,61.181
		v-4.126 M54.118,57.434v-4.516 M60.845,56.799v-3.881 M56.063,53.041v-5.027 M62.258,53.041v-4.895 M57.742,47.758v-4.26
		 M56.186,43.242v-3.88 M54.773,39.362V35.88 M60.968,39.628v-3.103 M56.708,35.625v-3.235 M54.118,31.877v-3.102 M60.968,32.901
		v-2.703 M64.459,64.928c0,0-5.928,2.232-12.635,2.017c-6.707,0.215-12.635-2.017-12.635-2.017 M64.07,60.024
		c0,0-5.662,1.843-12.246,2.017c-6.583-0.174-12.246-2.017-12.246-2.017 M63.937,56.41c0,0-7.72,1.167-12.113,1.167
		S39.711,56.41,39.711,56.41 M63.681,53.041H51.824H39.968 M63.292,44.266c0,0-4.516-1.024-9.932-1.29 M63.036,40.529
		c0,0-1.946-1.413-9.553-1.29 M62.903,37.17c0,0-3.717-1.648-11.079-1.73c-7.362,0.082-11.079,1.73-11.079,1.73 M62.647,34.068
		c0,0-1.393-2.038-10.823-1.986c-9.43-0.051-10.822,1.986-10.822,1.986 M62.647,30.587c0,0-3.072-1.904-10.823-2.12
		c-7.751,0.215-10.822,2.12-10.822,2.12 M50.841,27.679l-0.051-1.813 M49.101,27.638l-0.205-1.7 M47.083,28.068l-0.205-1.771
		 M45.21,28.375l-0.461-0.717l0.031-0.973 M43.438,28.693l-0.625-0.911v-0.789 M41.77,29.215l-0.911-0.737l-0.021-0.666
		 M47.073,73.836v-5.938l0.901-0.911 M40.49,72.546V67.13l1.546-1.167 M46.428,66.597V61.57 M40.357,65.184v-4.638 M44.237,61.181
		v-4.126 M49.531,57.434v-4.516 M42.804,56.799v-3.881 M47.585,53.041v-5.027 M41.391,53.041v-4.895 M45.906,47.758v-4.26
		 M47.462,43.242v-3.88 M48.875,39.362V35.88 M42.681,39.628v-3.103 M46.94,35.625v-3.235 M49.531,31.877v-3.102 M42.681,32.901
		v-2.703 M40.357,44.266c0,0,4.515-1.024,9.952-1.29 M40.613,40.529c0,0,2.088-1.443,9.707-1.311"/>
	<path fill="none" stroke="#231F20" stroke-width="0.3774" stroke-linecap="round" stroke-linejoin="round" d="M51.824,74.164
		c6.901,0.41,14.437-2.396,14.437-2.396v-5.672l-1.802-1.167l-1.812-34.341l0.911-1.822l1.423-0.696l-0.01-3.42l-3.185-1.116
		l0.031,1.689l-2.058-0.399l-0.082-2.109l-3.748-0.655l-0.113,1.853l-2.099-0.307l0.01-1.935l-1.904-0.041l-1.904,0.041l0.01,1.935
		l-2.099,0.307l-0.113-1.853l-3.747,0.655l-0.082,2.109l-2.058,0.399l0.031-1.689l-3.184,1.116l-0.01,3.42l1.423,0.696l0.912,1.822
		l-1.813,34.341l-1.802,1.167v5.672C37.387,71.768,44.923,74.573,51.824,74.164z"/>
	<line fill="none" stroke="#FFFFFF" stroke-width="0.3774" x1="40.162" y1="48.065" x2="63.343" y2="48.065"/>
	<polygon fill="#FFFFFF" points="51.968,36.669 50.35,38.501 50.35,47.266 53.524,47.266 53.524,38.399 	"/>
	<polygon fill="none" stroke="#231F20" stroke-width="0.2831" points="51.958,37.16 50.637,38.542 50.637,47.072 53.237,47.072
		53.237,38.451 	"/>
	<path fill="#231F20" d="M131.729,74.164c6.901,0.41,14.447-2.396,14.447-2.396v-5.672l-1.822-1.167l-1.803-34.341l0.912-1.822
		l1.433-0.696l-0.01-3.42l-3.194-1.116l0.03,1.689l-2.048-0.399l-0.092-2.109l-3.737-0.655l-0.112,1.853l-2.1-0.307l0.021-1.935
		l-1.925-0.041l-1.904,0.041l0.011,1.935l-2.1,0.307l-0.112-1.853l-3.737,0.655l-0.092,2.109l-2.048,0.399l0.03-1.689l-3.194,1.116
		l-0.011,3.42l1.434,0.696l0.911,1.822l-1.812,34.341l-1.813,1.167v5.672C117.292,71.768,124.838,74.573,131.729,74.164"/>
	<path fill="none" stroke="#FFFFFF" stroke-width="0.3774" d="M132.722,27.679l0.052-1.813 M134.463,27.638l0.194-1.7
		 M136.47,28.068l0.215-1.771 M138.363,28.375l0.451-0.717l-0.021-0.973 M140.125,28.693l0.614-0.911v-0.789 M141.804,29.215
		l0.901-0.737l0.021-0.666 M136.479,73.836v-5.938l-0.901-0.911 M143.063,72.546V67.13l-1.536-1.167 M137.135,66.597V61.57
		 M143.207,65.184v-4.638 M139.326,61.181v-4.126 M134.032,57.434v-4.516 M140.749,56.799v-3.881 M135.968,53.041v-5.027
		 M142.162,53.041v-4.895 M137.646,47.758v-4.26 M136.111,43.242v-3.88 M134.678,39.362V35.88 M140.872,39.628v-3.103
		 M136.623,35.625v-3.235 M134.032,31.877v-3.102 M140.872,32.901v-2.703 M144.363,64.928c0,0-5.918,2.232-12.635,2.017
		c-6.706,0.215-12.614-2.017-12.614-2.017 M143.984,60.024c0,0-5.662,1.843-12.256,2.017c-6.583-0.174-12.245-2.017-12.245-2.017
		 M143.842,56.41c0,0-7.71,1.167-12.113,1.167c-4.393,0-12.103-1.167-12.103-1.167 M143.596,53.041h-11.867h-11.856 M143.207,44.266
		c0,0-4.526-1.024-9.942-1.29 M142.94,40.529c0,0-1.936-1.413-9.553-1.29 M142.817,37.17c0,0-3.727-1.648-11.089-1.73
		c-7.352,0.082-11.078,1.73-11.078,1.73 M142.551,34.068c0,0-1.392-2.038-10.822-1.986c-9.42-0.051-10.813,1.986-10.813,1.986
		 M142.551,30.587c0,0-3.071-1.904-10.822-2.12c-7.74,0.215-10.813,2.12-10.813,2.12 M130.746,27.679l-0.052-1.813 M129.005,27.638
		l-0.184-1.7 M127.009,28.068l-0.226-1.771 M125.114,28.375l-0.461-0.717l0.031-0.973 M123.343,28.693l-0.614-0.911v-0.789
		 M121.674,29.215l-0.911-0.737l-0.021-0.666 M126.988,73.836v-5.938l0.9-0.911 M120.404,72.546V67.13l1.536-1.167 M126.333,66.597
		V61.57 M120.261,65.184v-4.638 M124.142,61.181v-4.126 M129.436,57.434v-4.516 M122.719,56.799v-3.881 M127.5,53.041v-5.027
		 M121.306,53.041v-4.895 M125.821,47.758v-4.26 M127.367,43.242v-3.88 M128.79,39.362V35.88 M122.596,39.628v-3.103
		 M126.845,35.625v-3.235 M129.436,31.877v-3.102 M122.596,32.901v-2.703 M120.261,44.266c0,0,4.526-1.024,9.952-1.29
		 M120.527,40.529c0,0,2.089-1.443,9.696-1.311"/>
	<path fill="none" stroke="#231F20" stroke-width="0.3774" stroke-linecap="round" stroke-linejoin="round" d="M131.729,74.164
		c6.901,0.41,14.447-2.396,14.447-2.396v-5.672l-1.822-1.167l-1.803-34.341l0.912-1.822l1.433-0.696l-0.01-3.42l-3.194-1.116
		l0.03,1.689l-2.048-0.399l-0.092-2.109l-3.737-0.655l-0.112,1.853l-2.1-0.307l0.021-1.935l-1.925-0.041l-1.904,0.041l0.011,1.935
		l-2.1,0.307l-0.112-1.853l-3.737,0.655l-0.092,2.109l-2.048,0.399l0.03-1.689l-3.194,1.116l-0.011,3.42l1.434,0.696l0.911,1.822
		l-1.812,34.341l-1.813,1.167v5.672C117.292,71.768,124.838,74.573,131.729,74.164z"/>
	<line fill="none" stroke="#FFFFFF" stroke-width="0.3774" x1="120.066" y1="48.065" x2="143.247" y2="48.065"/>
	<polygon fill="#FFFFFF" points="131.882,36.669 130.254,38.501 130.254,47.266 133.429,47.266 133.429,38.399 	"/>
	<polygon fill="none" stroke="#231F20" stroke-width="0.2831" points="131.872,37.16 130.551,38.542 130.551,47.072 133.152,47.072
		133.152,38.451 	"/>
</g>
</svg>
